
<svg width="1930px" height="286px" viewBox="0 0 1930 286" version="1.1" xmlns="http://www.w3.org/2000/svg" xmlns:xlink="http://www.w3.org/1999/xlink">
    <g id="Page-1" stroke="none" stroke-width="1" fill="none" fill-rule="evenodd">
        <g id="Group" transform="translate(894.000000, 0.000000)" fill="#61DAFB" fill-rule="nonzero">
            <path d="M321.5373,143 C321.5373,121.729977 294.900686,101.57254 254.062243,89.0723112 C263.486499,47.4485126 259.297941,14.3327231 240.842105,3.73043478 C236.588101,1.24347826 231.614188,0.0654462243 226.182151,0.0654462243 L226.182151,14.6599542 C229.192677,14.6599542 231.614188,15.2489703 233.643021,16.3615561 C242.543707,21.4663616 246.405034,40.9038902 243.394508,65.9043478 C242.6746,72.0562929 241.496568,78.5354691 240.056751,85.1455378 C227.229291,82.004119 213.223799,79.5826087 198.498398,78.0118993 C189.663158,65.9043478 180.500686,54.9093822 171.272769,45.2887872 C192.608238,25.4585812 212.634783,14.594508 226.247597,14.594508 L226.247597,0 C226.247597,0 226.247597,0 226.247597,0 C208.249886,0 184.689245,12.82746 160.866819,35.0791762 C137.044394,12.9583524 113.483753,0.261784897 95.4860412,0.261784897 L95.4860412,14.8562929 C109.03341,14.8562929 129.1254,25.6549199 150.46087,45.3542334 C141.298398,54.9748284 132.135927,65.9043478 123.431579,78.0118993 C108.640732,79.5826087 94.6352403,82.004119 81.8077803,85.210984 C80.3025172,78.6663616 79.1899314,72.3180778 78.4045767,66.2315789 C75.3286041,41.2311213 79.1244851,21.7935927 87.9597254,16.623341 C89.9231121,15.4453089 92.4755149,14.9217391 95.4860412,14.9217391 L95.4860412,0.327231121 C95.4860412,0.327231121 95.4860412,0.327231121 95.4860412,0.327231121 C89.9885584,0.327231121 85.0146453,1.50526316 80.6951945,3.99221968 C62.3048055,14.594508 58.1816934,47.6448513 67.6713959,89.1377574 C26.9638444,101.703432 0.45812357,121.795423 0.45812357,143 C0.45812357,164.270023 27.0947368,184.42746 67.9331808,196.927689 C58.5089245,238.551487 62.6974828,271.667277 81.1533181,282.269565 C85.4073227,284.756522 90.3812357,285.934554 95.8787185,285.934554 C113.87643,285.934554 137.437071,273.107094 161.259497,250.855378 C185.081922,272.976201 208.642563,285.672769 226.640275,285.672769 C232.137757,285.672769 237.11167,284.494737 241.431121,282.00778 C259.82151,271.405492 263.944622,238.355149 254.45492,196.862243 C295.031579,184.362014 321.5373,164.204577 321.5373,143 Z M236.326316,99.3473684 C233.904805,107.789931 230.894279,116.494279 227.491076,125.198627 C224.80778,119.962929 221.993593,114.727231 218.91762,109.491533 C215.907094,104.255835 212.700229,99.1510297 209.493364,94.1771167 C218.786728,95.5514874 227.75286,97.2530892 236.326316,99.3473684 Z M206.351945,169.047597 C201.24714,177.882838 196.011442,186.259954 190.579405,194.048055 C180.827918,194.898856 170.945538,195.356979 160.997712,195.356979 C151.115332,195.356979 141.232952,194.898856 131.546911,194.113501 C126.114874,186.3254 120.81373,178.01373 115.708924,169.243936 C110.735011,160.670481 106.219222,151.966133 102.09611,143.196339 C106.153776,134.426545 110.735011,125.656751 115.643478,117.083295 C120.748284,108.248055 125.983982,99.8709382 131.416018,92.0828375 C141.167506,91.2320366 151.049886,90.773913 160.997712,90.773913 C170.880092,90.773913 180.762471,91.2320366 190.448513,92.0173913 C195.880549,99.805492 201.181693,108.117162 206.286499,116.886957 C211.260412,125.460412 215.776201,134.16476 219.899314,142.934554 C215.776201,151.704348 211.260412,160.474142 206.351945,169.047597 Z M227.491076,160.539588 C231.025172,169.309382 234.035698,178.079176 236.522654,186.587185 C227.949199,188.681465 218.91762,190.448513 209.55881,191.822883 C212.765675,186.783524 215.97254,181.613272 218.983066,176.312128 C221.993593,171.07643 224.80778,165.775286 227.491076,160.539588 Z M161.128604,230.370709 C155.042105,224.087872 148.955606,217.085126 142.934554,209.427918 C148.824714,209.689703 154.845767,209.886041 160.932265,209.886041 C167.084211,209.886041 173.170709,209.755149 179.126316,209.427918 C173.236156,217.085126 167.149657,224.087872 161.128604,230.370709 Z M112.436613,191.822883 C103.143249,190.448513 94.1771167,188.746911 85.6036613,186.652632 C88.0251716,178.210069 91.0356979,169.505721 94.4389016,160.801373 C97.1221968,166.037071 99.9363844,171.272769 103.012357,176.508467 C106.08833,181.744165 109.229748,186.84897 112.436613,191.822883 Z M160.801373,55.6292906 C166.887872,61.9121281 172.974371,68.9148741 178.995423,76.5720824 C173.105263,76.3102975 167.084211,76.1139588 160.997712,76.1139588 C154.845767,76.1139588 148.759268,76.2448513 142.803661,76.5720824 C148.693822,68.9148741 154.78032,61.9121281 160.801373,55.6292906 Z M112.371167,94.1771167 C109.164302,99.216476 105.957437,104.386728 102.946911,109.687872 C99.9363844,114.92357 97.1221968,120.159268 94.4389016,125.394966 C90.9048055,116.625172 87.8942792,107.855378 85.4073227,99.3473684 C93.980778,97.3185355 103.012357,95.5514874 112.371167,94.1771167 Z M53.1423341,176.115789 C29.9743707,166.23341 14.9871854,153.275057 14.9871854,143 C14.9871854,132.724943 29.9743707,119.701144 53.1423341,109.884211 C58.7707094,107.4627 64.9226545,105.302975 71.2709382,103.274142 C75.001373,116.101602 79.9098398,129.452632 85.9963387,143.130892 C79.975286,156.743707 75.1322654,170.029291 71.4672769,182.791304 C64.9881007,180.762471 58.8361556,178.5373 53.1423341,176.115789 Z M88.3524027,269.638444 C79.4517162,264.533638 75.590389,245.09611 78.6009153,220.095652 C79.3208238,213.943707 80.4988558,207.464531 81.9386728,200.854462 C94.7661327,203.995881 108.771625,206.417391 123.497025,207.988101 C132.332265,220.095652 141.494737,231.090618 150.722654,240.711213 C129.387185,260.541419 109.360641,271.405492 95.7478261,271.405492 C92.802746,271.340046 90.3157895,270.75103 88.3524027,269.638444 Z M243.590847,219.768421 C246.666819,244.768879 242.870938,264.206407 234.035698,269.376659 C232.072311,270.554691 229.519908,271.078261 226.509382,271.078261 C212.962014,271.078261 192.870023,260.279634 171.534554,240.58032 C180.697025,230.959725 189.859497,220.030206 198.563844,207.922654 C213.354691,206.351945 227.360183,203.930435 240.187643,200.72357 C241.692906,207.333638 242.870938,213.681922 243.590847,219.768421 Z M268.787643,176.115789 C263.159268,178.5373 257.007323,180.697025 250.659039,182.725858 C246.928604,169.898398 242.020137,156.547368 235.933638,142.869108 C241.954691,129.256293 246.797712,115.970709 250.4627,103.208696 C256.941876,105.237529 263.093822,107.4627 268.853089,109.884211 C292.021053,119.76659 307.008238,132.724943 307.008238,143 C306.942792,153.275057 291.955606,166.298856 268.787643,176.115789 Z" id="Shape"></path>
            <circle id="Oval" cx="160.932265" cy="143" r="29.9089245"></circle>
        </g>
        <g id="Group" transform="translate(1287.000000, 0.000000)" stroke-linecap="round" stroke-linejoin="round">
            <g id="A-link" transform="translate(2.210884, 2.210884)">
                <g id="A">
                    <g id="Group">
                        <path d="M252.673129,141.496599 L181.92483,141.496599 L181.92483,161.704082 L230.431633,161.704082 C223.356803,192.02415 201.115306,217.285714 171.812245,227.398299 L55.5816327,111.176531 C67.7105442,75.802381 102.072109,50.5363946 141.496599,50.5363946 C171.816667,50.5363946 199.112245,65.7030612 216.286395,88.9438776 L231.453061,75.8112245 C211.227891,48.5068027 178.891497,30.320068 141.496599,30.320068 C88.9394558,30.320068 44.4697279,67.714966 33.3534014,117.238776 L166.758163,250.643537 C215.264966,238.514626 252.673129,194.044898 252.673129,141.487755 L252.673129,141.496599 Z M30.320068,142.513605 C30.320068,170.812925 41.4363946,198.095238 62.6608844,219.319728 C83.8853741,240.544218 112.184694,251.660544 139.467007,251.660544 L30.320068,142.513605 Z" id="Shape" fill="#FFFFFF"></path>
                        <path d="M141.496599,0 C63.6734694,0 0,63.6734694 0,141.496599 C0,219.319728 63.6734694,282.993197 141.496599,282.993197 C219.319728,282.993197 282.993197,219.319728 282.993197,141.496599 C282.993197,63.6734694 219.319728,0 141.496599,0 Z M62.6564626,220.336735 C41.4319728,199.112245 30.3156463,170.812925 30.3156463,143.530612 L140.479592,252.673129 C112.180272,251.656122 83.8809524,241.556803 62.6564626,220.332313 L62.6564626,220.336735 Z M165.745578,249.653061 L33.3534014,117.238776 C44.4697279,67.714966 88.9394558,30.320068 141.496599,30.320068 C178.891497,30.320068 211.227891,48.5112245 231.448639,75.802381 L216.281973,88.935034 C199.112245,65.6942177 171.816667,50.5408163 141.496599,50.5408163 C102.080952,50.5408163 68.727551,75.8068027 55.5816327,111.180952 L171.816667,227.411565 C201.132993,217.303401 223.361224,192.037415 230.436054,161.717347 L181.929252,161.717347 L181.929252,141.496599 L252.677551,141.496599 C252.677551,194.053741 215.282653,238.523469 165.758844,249.639796 L165.745578,249.653061 Z" id="Shape" fill="#663399"></path>
                    </g>
                </g>
            </g>
            <g id="A">
                <g id="Group">
                    <path d="M252.673129,141.496599 L181.92483,141.496599 L181.92483,161.704082 L230.431633,161.704082 C223.356803,192.02415 201.115306,217.285714 171.812245,227.398299 L55.5816327,111.176531 C67.7105442,75.802381 102.072109,50.5363946 141.496599,50.5363946 C171.816667,50.5363946 199.112245,65.7030612 216.286395,88.9438776 L231.453061,75.8112245 C211.227891,48.5068027 178.891497,30.320068 141.496599,30.320068 C88.9394558,30.320068 44.4697279,67.714966 33.3534014,117.238776 L166.758163,250.643537 C215.264966,238.514626 252.673129,194.044898 252.673129,141.487755 L252.673129,141.496599 Z M30.320068,142.513605 C30.320068,170.812925 41.4363946,198.095238 62.6608844,219.319728 C83.8853741,240.544218 112.184694,251.660544 139.467007,251.660544 L30.320068,142.513605 Z" id="Shape" fill="#FFFFFF"></path>
                    <path d="M141.496599,0 C63.6734694,0 0,63.6734694 0,141.496599 C0,219.319728 63.6734694,282.993197 141.496599,282.993197 C219.319728,282.993197 282.993197,219.319728 282.993197,141.496599 C282.993197,63.6734694 219.319728,0 141.496599,0 Z M62.6564626,220.336735 C41.4319728,199.112245 30.3156463,170.812925 30.3156463,143.530612 L140.479592,252.673129 C112.180272,251.656122 83.8809524,241.556803 62.6564626,220.332313 L62.6564626,220.336735 Z M165.745578,249.653061 L33.3534014,117.238776 C44.4697279,67.714966 88.9394558,30.320068 141.496599,30.320068 C178.891497,30.320068 211.227891,48.5112245 231.448639,75.802381 L216.281973,88.935034 C199.112245,65.6942177 171.816667,50.5408163 141.496599,50.5408163 C102.080952,50.5408163 68.727551,75.8068027 55.5816327,111.180952 L171.816667,227.411565 C201.132993,217.303401 223.361224,192.037415 230.436054,161.717347 L181.929252,161.717347 L181.929252,141.496599 L252.677551,141.496599 C252.677551,194.053741 215.282653,238.523469 165.758844,249.639796 L165.745578,249.653061 Z" id="Shape" fill="#663399"></path>
                </g>
            </g>
        </g>
        <g id="Group" transform="translate(537.000000, 0.000000)" fill-rule="nonzero">
            <rect id="Rectangle" fill="#F7DF1E" x="0" y="0" width="286" height="286"></rect>
            <path d="M192.119365,223.438635 C197.880222,232.844857 205.375238,239.758794 218.631111,239.758794 C229.766952,239.758794 236.880635,234.193143 236.880635,226.502921 C236.880635,217.287365 229.571746,214.023333 217.314603,208.661968 L210.595873,205.77927 C191.202349,197.517048 178.31873,187.166571 178.31873,165.285302 C178.31873,145.129111 193.676476,129.784984 217.677778,129.784984 C234.765143,129.784984 247.049524,135.731968 255.901905,151.303079 L234.973968,164.74054 C230.36619,156.478317 225.395238,153.223365 217.677778,153.223365 C209.805968,153.223365 204.816857,158.217016 204.816857,164.74054 C204.816857,172.803016 209.810508,176.067048 221.341302,181.060698 L228.060032,183.938857 C250.894635,193.730952 263.787333,203.713714 263.787333,226.157905 C263.787333,250.354413 244.779683,263.610286 219.253048,263.610286 C194.293873,263.610286 178.168921,251.716317 170.278952,236.127048 L192.119365,223.438635 Z M97.1809841,225.767492 C101.402889,233.257968 105.24346,239.590825 114.477175,239.590825 C123.306857,239.590825 128.877048,236.136127 128.877048,222.703206 L128.877048,131.319397 L155.751968,131.319397 L155.751968,223.066381 C155.751968,250.894635 139.436349,263.560349 115.621175,263.560349 C94.1030794,263.560349 81.6416508,252.424508 75.304254,239.012016 L97.1809841,225.767492 Z" id="Shape" fill="#000000"></path>
        </g>
        <g id="Group" transform="translate(1644.000000, 0.000000)" fill="#FFFFFF">
            <path d="M143.276843,20.5637489 C175.28788,20.5637489 204.434434,32.8306311 226.282746,52.9146116 C215.574089,52.6272793 204.887535,58.9927965 204.445485,73.569389 C203.544808,103.037534 239.68238,109.314642 220.210086,168.587995 L204.102896,217.616845 L160.234978,88.3946344 C159.555327,86.394359 160.345491,85.2560808 162.804393,85.2560808 L175.206653,85.2560808 C175.851217,85.2560808 176.37814,84.7057288 176.37814,84.0317133 L176.37814,76.6859506 C176.37814,76.0122115 175.849891,75.4340103 175.206653,75.4618594 C151.719994,76.4889069 128.371476,76.4958692 105.163861,75.4618594 C104.517363,75.4342313 103.992429,76.0144217 103.992429,76.6885477 L103.992429,84.0343104 C103.992429,84.7076075 104.519573,85.2586778 105.163916,85.2586778 L117.634141,85.2586778 C120.408059,85.2586778 121.184685,86.183004 121.838643,87.9710402 L139.863224,137.26512 L112.748993,219.13827 L68.1793214,87.8605277 C67.6267591,86.2138922 68.2953595,85.2579595 69.8812132,85.2579595 L84.0903517,85.2579595 C84.7346946,85.2579595 85.2616179,84.7076075 85.2616179,84.033592 L85.2616179,76.6878293 C85.2616179,76.0140902 84.7328159,75.4299766 84.0903517,75.4637382 C69.1822219,76.2556151 54.2171782,76.4148636 40.2771375,76.5579772 C62.1525248,42.8605203 100.108579,20.5609751 143.269217,20.5609751 L143.269057,20.5609751 L143.276843,20.5637489 Z M251.203304,84.8433168 C260.632778,102.216427 265.987107,122.121377 265.987107,143.27125 C265.987107,189.689243 240.196263,230.089833 202.171691,250.943532 L240.442153,142.547394 C246.371147,125.771603 251.874667,103.099974 251.200541,84.8433168 L251.20032,84.8433168 L251.203304,84.8433168 Z M184.359847,258.922531 C171.512774,263.492221 157.687666,265.984277 143.276843,265.984277 C130.860769,265.984277 118.881219,264.133194 107.586846,260.707308 L145.390393,152.371951 L184.359847,258.928057 L184.359847,258.928052 L184.359847,258.922531 Z M90.766851,254.20365 C49.2688726,234.52304 20.5638157,192.244843 20.5638157,143.276776 C20.5638157,125.124 24.5127019,107.891794 31.5901956,92.3880019 L90.7697796,254.20586 L90.7697796,254.20586 L90.766851,254.20365 Z M143.272975,9.04835142 C217.388151,9.04835142 277.495874,69.1560742 277.495874,143.27125 C277.495874,217.386426 217.388151,277.494149 143.272975,277.494149 C69.1577987,277.494149 9.05007589,217.386426 9.05007589,143.27125 C9.05007589,69.1560742 69.1577987,9.04835142 143.272975,9.04835142 L143.272975,9.04835142 Z M143.272975,0.564310459 C222.073879,0.564310459 285.98323,64.4736616 285.98323,143.274566 C285.98323,222.07547 222.073879,285.984821 143.272975,285.984821 C64.4720707,285.984821 0.562719563,222.07547 0.562719563,143.274566 C0.562719563,64.4736616 64.4720707,0.564310459 143.272975,0.564310459 Z" id="Shape"></path>
        </g>
        <g id="Group" fill-rule="nonzero">
            <g id="g3013">
                <polygon id="polygon2989" fill="#264DE4" points="101.540055 286 18.7933281 263.028949 0.353589844 56.2057031 202.974535 56.2057031 184.515246 262.996551"></polygon>
                <polygon id="polygon2991" fill="#2965F1" points="168.71207 249.82882 184.486758 73.1165703 101.664063 73.1165703 101.664063 268.417145"></polygon>
                <polygon id="polygon2993" fill="#EBEBEB" points="42.6262891 149.82434 44.8997656 175.190082 101.664063 175.190082 101.664063 149.82434"></polygon>
                <polygon id="polygon2995" fill="#EBEBEB" points="38.0581094 98.4828711 40.3639844 123.849172 101.664063 123.849172 101.664063 98.4828711 101.576363 98.4828711"></polygon>
                <polygon id="polygon2997" fill="#EBEBEB" points="101.664063 215.702652 101.552902 215.732258 73.302582 208.104102 71.4966484 187.873512 57.769207 187.873512 46.0331523 187.873512 49.5869258 227.701805 101.547316 242.126371 101.664063 242.093973"></polygon>
                <polygon id="path2999" fill="#FFFFFF" points="48.0390625 0 78.7617188 0 78.7617188 12.8476562 60.8867188 12.8476562 60.8867188 25.6953125 78.7617188 25.6953125 78.7617188 38.5429688 48.0390625 38.5429688"></polygon>
                <polygon id="path3001" fill="#FFFFFF" points="84.90625 0 115.628906 0 115.628906 11.171875 97.7539063 11.171875 97.7539063 13.40625 115.628906 13.40625 115.628906 39.1015625 84.90625 39.1015625 84.90625 27.3710938 102.78125 27.3710938 102.78125 25.1367188 84.90625 25.1367188"></polygon>
                <polygon id="path3003" fill="#FFFFFF" points="121.773438 0 152.496094 0 152.496094 11.171875 134.621094 11.171875 134.621094 13.40625 152.496094 13.40625 152.496094 39.1015625 121.773438 39.1015625 121.773438 27.3710938 139.648438 27.3710938 139.648438 25.1367188 121.773438 25.1367188"></polygon>
                <polygon id="polygon3005" fill="#FFFFFF" points="160.539285 149.82434 165.118637 98.4828711 101.576363 98.4828711 101.576363 123.849172 137.31966 123.849172 135.011551 149.82434 101.576363 149.82434 101.576363 175.190082 132.811809 175.190082 129.867461 208.087902 101.576363 215.723879 101.576363 242.114082 153.57809 227.701805 153.959609 223.416273 159.920363 156.635832"></polygon>
            </g>
            <g id="g3054" transform="translate(262.602326, 0.000000)">
                <polygon id="polygon3028" fill="#E44D26" points="202.974535 56.2057031 184.515246 262.996551 101.540055 286 18.7933281 263.028949 0.353589844 56.2057031"></polygon>
                <polygon id="polygon3030" fill="#F16529" points="101.664063 268.417145 168.71207 249.82882 184.486758 73.1165703 101.664063 73.1165703"></polygon>
                <polygon id="polygon3032" fill="#EBEBEB" points="65.78 123.849172 101.664063 123.849172 101.664063 98.4828711 101.576363 98.4828711 38.0581094 98.4828711 38.6653008 105.288219 44.8997656 175.190082 101.664063 175.190082 101.664063 149.82434 68.0981641 149.82434"></polygon>
                <polygon id="polygon3034" fill="#EBEBEB" points="71.4966484 187.873512 57.769207 187.873512 46.0331523 187.873512 49.5869258 227.701805 101.547316 242.126371 101.664063 242.093973 101.664063 215.702652 101.552902 215.732258 73.302582 208.104102"></polygon>
                <polygon id="path3036" fill="#FFFFFF" points="19.2055703 0 32.0962383 0 32.0962383 12.7359375 43.8881523 12.7359375 43.8881523 0 56.7793789 0 56.7793789 38.5675469 43.8887109 38.5675469 43.8887109 25.6528594 32.0967969 25.6528594 32.0967969 38.5675469 19.2061289 38.5675469 19.2061289 0"></polygon>
                <polygon id="path3038" fill="#FFFFFF" points="73.7310234 12.7895625 62.3826328 12.7895625 62.3826328 0 97.9762266 0 97.9762266 12.7895625 86.6228086 12.7895625 86.6228086 38.5675469 73.731582 38.5675469 73.731582 12.7895625"></polygon>
                <polygon id="path3040" fill="#FFFFFF" points="103.625285 0 117.066727 0 125.335031 13.5514844 133.594957 0 147.041426 0 147.041426 38.5675469 134.203824 38.5675469 134.203824 19.4513516 125.335031 33.1642695 125.11327 33.1642695 116.238332 19.4513516 116.238332 38.5675469 103.625285 38.5675469"></polygon>
                <polygon id="path3042" fill="#FFFFFF" points="153.456875 0 166.351453 0 166.351453 25.8193203 184.479496 25.8193203 184.479496 38.5675469 153.456875 38.5675469"></polygon>
                <polygon id="polygon3044" fill="#FFFFFF" points="101.576363 175.190082 132.811809 175.190082 129.867461 208.087902 101.576363 215.723879 101.576363 242.114082 153.57809 227.701805 153.959609 223.416273 159.920363 156.635832 160.539285 149.82434 153.703773 149.82434 101.576363 149.82434"></polygon>
                <polygon id="polygon3046" fill="#FFFFFF" points="101.576363 123.787168 101.576363 123.849172 162.76584 123.849172 162.76584 123.849172 162.847395 123.849172 163.356273 118.147605 164.512004 105.288219 165.118637 98.4828711 101.576363 98.4828711 101.576363 114.237449"></polygon>
            </g>
        </g>
    </g>
</svg>